<?xml version="1.0" encoding="UTF-8"?>
<svg version="1.1" xmlns="http://www.w3.org/2000/svg" width="2272" height="1704">
<path d="M0 0 C4.54144994 -0.11647041 9.08251394 -0.18734502 13.625 -0.25 C15.55279297 -0.30027344 15.55279297 -0.30027344 17.51953125 -0.3515625 C29.41601538 -0.47484213 29.41601538 -0.47484213 34 4 C47.35238862 19.251395 49.22576388 43.83027916 49.06591797 63.23266602 C49.06124512 64.32018661 49.05657227 65.40770721 49.05175781 66.52818298 C49.04130205 68.87708622 49.02865521 71.22598053 49.01403427 73.57486153 C48.9918786 77.30592631 48.97788434 81.03693925 48.96633911 84.76805115 C48.93288116 95.37254476 48.89161008 105.97694006 48.82861328 116.58129883 C48.79072361 123.08208434 48.76786835 129.5827823 48.75430679 136.08366203 C48.74631169 138.54615659 48.73278824 141.00864023 48.71337509 143.47107124 C48.49972316 171.06040089 52.05790799 194.79400986 71.69140625 215.71875 C85.65564737 229.51759401 101.80984287 234.47275893 121.12298584 234.39872742 C122.51103136 234.40417873 123.89907225 234.41093518 125.2871058 234.41886932 C129.06817434 234.43676563 132.8490452 234.43635357 136.63014603 234.43273985 C140.71998463 234.43211277 144.80975873 234.44876616 148.89956665 234.46325684 C155.97444902 234.48598881 163.04928233 234.49791859 170.12419891 234.50238609 C180.35316437 234.50886104 190.58204135 234.53182203 200.81097105 234.55872939 C217.40912448 234.60194686 234.00727417 234.63194236 250.60546875 234.65356445 C266.72332596 234.67458927 282.84115263 234.70187747 298.95898438 234.73754883 C300.45074014 234.74084707 300.45074014 234.74084707 301.97263238 234.74421193 C306.9620648 234.75528196 311.95149693 234.7664747 316.94092894 234.77772844 C358.2939258 234.87084214 399.6469393 234.94247317 441 235 C441.13014496 234.11503845 441.26028992 233.2300769 441.39437866 232.31829834 C441.56893585 231.15332825 441.74349304 229.98835815 441.92333984 228.78808594 C442.0947348 227.63499939 442.26612976 226.48191284 442.44271851 225.29388428 C443.14787659 221.12595633 444.23378236 217.23342904 445.625 213.25 C445.88297363 212.49904053 446.14094727 211.74808105 446.40673828 210.97436523 C448.32286412 205.56229888 450.48698242 200.2828175 452.875 195.0625 C453.31126709 194.08941895 453.31126709 194.08941895 453.75634766 193.09667969 C458.94907134 182.20596466 466.95224956 173.60153235 475.5 165.25 C476.39847656 164.35667969 477.29695313 163.46335937 478.22265625 162.54296875 C482.77889487 158.03978677 487.39777547 153.66447236 492.27734375 149.51269531 C494.1003899 147.91184583 495.79944962 146.2300342 497.5 144.5 C499.82437087 142.13641028 502.20513786 139.91114043 504.71875 137.75 C508.91345437 134.10326989 512.96525165 130.32197842 517 126.5 C521.62762676 122.11640825 526.3069488 117.82195516 531.12060547 113.64306641 C534.80728279 110.4199775 538.37773369 107.07079394 541.97265625 103.74609375 C542.46709229 103.30587891 542.96152832 102.86566406 543.47094727 102.41210938 C545.04166737 101.00021852 545.04166737 101.00021852 546.52709961 99.33789062 C550.02263594 95.78839952 552.4733172 94.60955597 557.49609375 94.4140625 C559.47741666 94.45355731 561.45833041 94.52456068 563.4375 94.625 C564.96407227 94.66560547 564.96407227 94.66560547 566.52148438 94.70703125 C569.01655513 94.77731493 571.50713847 94.87562799 574 95 C570.62067548 99.0635441 567.23541662 102.88441699 563.25 106.375 C561.94869141 107.52548828 561.94869141 107.52548828 560.62109375 108.69921875 C559.32365234 109.83810547 559.32365234 109.83810547 558 111 C534.34294003 132.05043901 515.05565848 150.62376513 512.78662109 184.15307617 C512.67743684 187.43087855 512.61978291 190.70494084 512.5859375 193.984375 C512.56657135 195.16598206 512.5472052 196.34758911 512.5272522 197.56500244 C512.46806314 201.29326438 512.42131605 205.02155823 512.375 208.75 C512.33676428 211.29688755 512.29770941 213.84376293 512.2578125 216.390625 C512.16241241 222.59364108 512.07719238 228.79673202 512 235 C518.77728211 234.93255197 525.55400751 234.84257465 532.33081055 234.73754883 C534.63217534 234.70446701 536.933618 234.67638399 539.23510742 234.65356445 C542.55941698 234.61970908 545.88302355 234.56737883 549.20703125 234.51171875 C550.2220723 234.50532883 551.23711334 234.4989389 552.28291321 234.49235535 C568.97367632 234.15529726 581.22955369 227.2737144 594 217 C594.59013885 216.6112117 595.18027771 216.2224234 595.78829956 215.82185364 C598.64855168 213.77211776 600.65991223 212.18429507 601.65296936 208.72615051 C601.90499955 205.98662533 601.94347571 203.3211122 601.90234375 200.5703125 C601.92078087 199.084814 601.92078087 199.084814 601.93959045 197.56930542 C601.97126766 194.42044524 601.95505821 191.27393238 601.9375 188.125 C601.95061195 185.98435328 601.96685326 183.84372329 601.98632812 181.703125 C602.02713667 176.46840078 602.02868464 171.23478002 602 166 C603.1758667 167.17695435 603.1758667 167.17695435 604.37548828 168.37768555 C605.9088168 169.90973035 607.44591787 171.43804873 608.9921875 172.95703125 C613.02122294 176.92755373 616.82160012 181.00105287 620.45703125 185.3359375 C622.09388333 187.23084911 622.09388333 187.23084911 625 189 C625.7734375 188.21496094 626.546875 187.42992187 627.34375 186.62109375 C633.05416047 180.84995381 638.80480317 175.25292039 645 170 C646.03757761 169.08851212 647.07392555 168.1756235 648.109375 167.26171875 C666.968315 150.70603835 687.26639221 134.67245451 713.484375 135.609375 C723.51783148 136.26826366 731.81693519 140.39614096 738.625 147.75 C748.37691668 159.39632875 749.18123402 173.37753589 748 188 C744.56968641 212.97289177 731.56244894 230.11636726 713.05981445 246.18310547 C709.56428463 249.26639728 706.19334097 252.47961218 702.8125 255.6875 C696.55000016 261.60455823 690.27414554 267.50419178 683.9140625 273.31640625 C682.05352129 275.0298001 680.2126096 276.76492731 678.3984375 278.52734375 C669.08697343 287.41018487 658.98180176 292.10181982 646.25 293.375 C636.725897 293.0702287 627.96572028 289.34791804 621 283 C620.40832031 282.52175781 619.81664062 282.04351563 619.20703125 281.55078125 C604.7155706 268.85075945 602.45551711 246.96414542 601 229 C595.19666223 234.12486822 589.58828337 239.36653866 584.15234375 244.87890625 C581.526376 247.46674743 578.76245032 249.85516636 575.96484375 252.25390625 C573.89179676 254.09615675 571.94564198 256.02401662 570 258 C566.93882747 261.10246002 563.76857732 263.98106424 560.46484375 266.8203125 C557.08015723 269.81342673 553.79432699 272.90809066 550.5 276 C546.57162428 279.6869994 542.64934916 283.36273756 538.5625 286.875 C532.53522779 292.08037145 527.0623031 297.75981165 521.93359375 303.84765625 C520 306 520 306 518.30997181 307.30133438 C515.2758522 309.80758943 513.29518064 311.78182209 512.35159874 315.67588043 C512.11291567 318.97462319 512.09167341 322.21145887 512.14526367 325.51855469 C512.1377005 326.76677505 512.13013733 328.01499542 512.12234497 329.30104065 C512.10811379 332.71394598 512.12458863 336.12413676 512.15417647 339.53676891 C512.17738834 343.13006929 512.15921174 346.7231541 512.14509583 350.31646729 C512.12417983 357.13615319 512.13704882 363.95530752 512.16356784 370.7749579 C512.20957052 382.934511 512.19368905 395.09409832 512.1725176 407.25369382 C512.16637169 411.50673573 512.17343563 415.75949017 512.19146734 420.01249528 C512.33452889 456.3306104 509.58347592 491.51098249 483.09765625 518.91796875 C475.40638287 526.65972637 467.34740831 534.05310067 459.078125 541.171875 C456.21485713 543.69068959 453.42214008 546.28318404 450.625 548.875 C445.1282923 553.96775847 439.58203681 559.00075333 434 564 C432.332943 565.49956619 430.66628005 566.99957053 429 568.5 C426.52497766 570.72829114 424.04928246 572.9557884 421.5703125 575.1796875 C417.96605837 578.41545558 414.36713376 581.65537184 410.80859375 584.94140625 C410.26895996 585.43914551 409.72932617 585.93688477 409.17333984 586.44970703 C408.12117887 587.42149681 407.07064778 588.39505507 406.02197266 589.37060547 C401.94042112 593.13998198 399.53202293 595.26048581 393.89453125 595.1953125 C392.91162109 595.18886719 391.92871094 595.18242188 390.91601562 595.17578125 C389.89185547 595.15902344 388.86769531 595.14226563 387.8125 595.125 C386.77673828 595.11597656 385.74097656 595.10695313 384.67382812 595.09765625 C382.11565315 595.0740786 379.55794252 595.0411703 377 595 C383.16736444 587.62109788 383.16736444 587.62109788 386.75 584.625 C389.87805635 581.96257036 392.95404126 579.25631236 396 576.5 C398.98062721 573.81016569 401.97245233 571.13689636 405 568.5 C408.9058542 565.09125452 412.78955534 561.6602259 416.62109375 558.16796875 C418.03363885 556.88067395 419.45890996 555.60678267 420.91015625 554.36328125 C432.89730874 543.52296339 438.07930811 526.58225062 440 511 C440.08704703 508.19209736 440.13109959 505.41035822 440.12025452 502.60340881 C440.12110894 501.78480092 440.12196337 500.96619303 440.12284368 500.12277883 C440.12448379 497.39441129 440.11900126 494.66610597 440.11352539 491.93774414 C440.11324318 489.97614544 440.11340192 488.01454664 440.1139679 486.052948 C440.11425453 480.73740706 440.10837938 475.42188873 440.10139394 470.10635304 C440.09513817 464.54766406 440.09455484 458.98897455 440.09336853 453.43028259 C440.09026178 442.90842683 440.08205721 432.38658148 440.07201904 421.8647303 C440.06083755 409.88414435 440.05534232 397.9035579 440.05032361 385.92296803 C440.03987407 361.28197292 440.02228731 336.64098704 440 312 C439.364557 312.00113916 438.729114 312.00227832 438.07441515 312.003452 C400.37120704 312.07065895 362.66800784 312.12209638 324.96475204 312.15319599 C320.43263733 312.15694788 315.90052274 312.16083087 311.3684082 312.16479492 C310.46618658 312.16558185 309.56396496 312.16636878 308.6344033 312.16717956 C294.04633438 312.18021575 279.45830112 312.20385971 264.87025332 312.23145839 C249.88960872 312.25956239 234.90898272 312.2761868 219.92831284 312.28226548 C210.69244076 312.28637158 201.45666946 312.29931692 192.22082842 312.3237494 C185.87823251 312.33966831 179.53568833 312.3443865 173.19307392 312.34050413 C169.5395909 312.33859211 165.88628337 312.34141919 162.23283195 312.35761642 C134.26925059 312.47552825 134.26925059 312.47552825 122 309 C121.24950599 308.80799106 120.49901197 308.61598211 119.72577572 308.41815472 C105.59995595 304.61434248 92.93587316 297.64929985 82 288 C81.18144531 287.31292969 80.36289062 286.62585938 79.51953125 285.91796875 C50.30904412 260.78336354 33.69884343 218.76122827 30 181 C29.84826222 176.95912417 29.84601663 172.92035179 29.84228516 168.87695312 C29.83466408 167.0681366 29.83466408 167.0681366 29.82688904 165.22277832 C29.81342708 161.92890307 29.80401571 158.63504087 29.79547167 155.34115028 C29.78468859 151.87547844 29.76611883 148.40985192 29.74765015 144.94421387 C29.68598724 133.15620599 29.63186075 121.36820308 29.59863281 109.58007812 C29.58017898 103.06157039 29.55110875 96.54319652 29.5106281 90.02478743 C29.48973398 86.58538485 29.47412624 83.14614963 29.47182083 79.7066803 C29.43674569 52.4441182 26.75243591 28.2759493 7.46484375 7.3125 C5.10592552 5.09937861 2.75804486 3.65187713 0 2 C0 1.34 0 0.68 0 0 Z M636 202 C640.06548092 207.66276821 644.44179774 212.83232674 649.25 217.875 C649.90967773 218.56972412 650.56935547 219.26444824 651.24902344 219.98022461 C652.56346823 221.36090484 653.88013477 222.73947396 655.19921875 224.11572266 C656.74884514 225.73719994 658.28310086 227.37122387 659.8125 229.01171875 C666.66793733 236.18575813 675.47107661 244.06970199 685.71875 245.3359375 C689.96398143 245.39556154 693.12970872 245.41701457 697 243.5625 C701.87203583 237.3202041 702.55247433 230.91335855 701.63671875 223.18359375 C699.40791668 212.03958338 694.52700092 200.5515521 684.90625 193.97265625 C668.7067985 185.70695252 649.97869498 192.66188637 636 202 Z " fill="#E23445" transform="translate(786,634)"/>
<path d="M0 0 C0.14695312 1.11375 0.29390625 2.2275 0.4453125 3.375 C4.32726398 30.61781982 16.95749288 49.38820125 35.32568359 69.44775391 C45.26426768 80.36853721 56.19188427 94.11827895 56.375 109.5 C56.40335938 110.5828125 56.43171875 111.665625 56.4609375 112.78125 C55.57239561 118.9859832 51.15700352 123.08439001 46.82421875 127.3359375 C46.33597122 127.81898346 45.84772369 128.30202942 45.34468079 128.79971313 C43.79703631 130.32971831 42.24284137 131.85282311 40.6875 133.375 C38.6462684 135.37931674 36.60869669 137.38726633 34.57421875 139.3984375 C34.08549286 139.8801239 33.59676697 140.3618103 33.0932312 140.85809326 C29.66121844 144.26756107 26.46588387 147.80991338 23.41333008 151.56103516 C22 153 22 153 19 154 C18.61070312 153.33355469 18.22140625 152.66710937 17.8203125 151.98046875 C17.26085938 151.05878906 16.70140625 150.13710938 16.125 149.1875 C15.59132813 148.29417969 15.05765625 147.40085937 14.5078125 146.48046875 C10.98399465 141.18803633 6.32501329 136.63468135 2 132 C1.99413376 132.72868286 1.98826752 133.45736572 1.98222351 134.20812988 C1.92379034 141.14935653 1.85143558 148.09032104 1.76428509 155.03124237 C1.71997179 158.59779 1.68063597 162.16423356 1.65356445 165.73095703 C1.34817673 204.72656009 1.34817673 204.72656009 -6.109375 216.984375 C-7.16395879 218.9441914 -7.16395879 218.9441914 -6.8515625 221.03125 C-5.80278801 223.45593966 -4.47570301 224.86152754 -2.625 226.75 C18.54760908 249.89215411 35.05939988 283.46889926 35.17700195 315.14746094 C35.18357315 315.93060669 35.19014435 316.71375244 35.19691467 317.52062988 C35.21649639 320.0918795 35.22827561 322.66307116 35.23828125 325.234375 C35.24235678 326.11889595 35.2464323 327.0034169 35.25063133 327.91474152 C35.27142663 332.59582784 35.28575705 337.27688542 35.29516602 341.95800781 C35.30622316 346.76715521 35.34063394 351.57583905 35.38033772 356.38482285 C35.40660035 360.10655521 35.41486632 363.82817856 35.41844749 367.54999542 C35.42328767 369.32164901 35.43482742 371.09329858 35.45348549 372.86486053 C35.68725119 396.5288933 25.62926222 408.10938006 9.62670898 424.50170898 C5.47435196 428.72986607 1.29750601 432.93327808 -2.88818359 437.12841797 C-5.50170324 439.75170961 -8.10434082 442.3855008 -10.70703125 445.01953125 C-12.39777723 446.71680382 -14.08916197 448.41344038 -15.78125 450.109375 C-16.54304565 450.88351746 -17.30484131 451.65765991 -18.08972168 452.45526123 C-25.22876416 459.56552504 -33.09369066 466.48569408 -42.6875 469.9375 C-43.70199219 470.31777344 -44.71648437 470.69804688 -45.76171875 471.08984375 C-54.49165022 473.54349156 -63.47674377 473.15491007 -72.46533203 473.16113281 C-74.02998469 473.16576784 -75.59463624 473.17079341 -77.1592865 473.17617798 C-81.39308843 473.18923883 -85.62687455 473.19573465 -89.86069345 473.20018864 C-92.51219167 473.20312986 -95.16368566 473.20723662 -97.81518173 473.21169281 C-106.12963404 473.22535169 -114.44407658 473.23502596 -122.75853932 473.2388947 C-132.32184705 473.24337032 -141.88501149 473.26090197 -151.44827569 473.2898953 C-158.86345936 473.31158758 -166.27860294 473.32160301 -173.69381797 473.32293582 C-178.11185412 473.32397854 -182.52975528 473.32977175 -186.94775772 473.34775543 C-191.10931185 473.36436708 -195.27063141 473.36632893 -199.43220711 473.35761642 C-200.94859386 473.35685297 -202.46499393 473.3610959 -203.98134804 473.37107468 C-222.82275579 473.48766641 -239.89709655 469.92781272 -253.875 456.38671875 C-263.2492714 445.85789555 -264.34158854 435.26135256 -263.9765625 421.65234375 C-263.95153656 420.39990372 -263.92651062 419.14746368 -263.90072632 417.85707092 C-263.83286266 414.55746761 -263.75565769 411.25826356 -263.67376709 407.95898438 C-263.59225709 404.58024684 -263.52324637 401.2012553 -263.453125 397.82226562 C-263.31349504 391.21455287 -263.16152911 384.60721176 -263 378 C-261.87694132 378.95823582 -260.75450164 379.91719715 -259.63232422 380.87646484 C-259.0071994 381.41040863 -258.38207458 381.94435242 -257.73800659 382.49447632 C-255.81955284 384.15630981 -253.97622616 385.88896124 -252.125 387.625 C-244.55036558 394.27302866 -235.93723273 396.39706053 -226.02734375 396.27734375 C-211.8220938 394.97595956 -199.85968052 386.71819913 -190 377 C-189.37867188 376.39236816 -188.75734375 375.78473633 -188.1171875 375.15869141 C-179.05766639 366.3255839 -179.05766639 366.3255839 -170.51171875 357.00390625 C-166.25423723 352.07143613 -161.60964045 347.55964734 -156.9609375 343 C-153.68299366 339.76002463 -150.50864439 336.49302931 -147.5 333 C-143.24967188 328.06537869 -138.60741662 323.55746611 -133.9609375 319 C-130.68299366 315.76002463 -127.50864439 312.49302931 -124.5 309 C-120.24967188 304.06537869 -115.60741662 299.55746611 -110.9609375 295 C-107.04443793 291.12886529 -103.35221146 287.15381425 -99.75927734 282.98193359 C-96.76313118 279.60659158 -93.53496857 276.46993388 -90.3125 273.3125 C-84.21410869 267.53424889 -84.21410869 267.53424889 -79 261 C-80.09226405 257.72320785 -80.79929154 257.07691498 -83.375 254.9375 C-86.76001558 252.07139946 -90.05228794 249.13262748 -93.3125 246.125 C-97.85524685 241.97754742 -102.54119962 238.06767305 -107.328125 234.20703125 C-109.8985905 232.08376662 -112.35919363 229.88188151 -114.8125 227.625 C-119.18385361 223.64603561 -123.73727255 219.98559617 -128.40771484 216.36987305 C-131.62064997 213.87948253 -134.79784836 211.35842038 -137.92578125 208.76171875 C-144.43732208 203.35690134 -150.98359946 198.11557147 -158 193.375 C-158.58644287 192.97337646 -159.17288574 192.57175293 -159.77709961 192.15795898 C-166.85136174 187.49959196 -173.77696944 184.84873935 -182.34375 186.43359375 C-190.41652904 188.43933052 -196.94506239 192.74524966 -201.875 199.5 C-205.19914771 205.49717371 -206.05170919 212.30194594 -207 219 C-207.10441406 219.7115625 -207.20882812 220.423125 -207.31640625 221.15625 C-212.00404947 254.8598114 -208.43052553 289.36086614 -205 323 C-213.55540334 315.85132644 -221.37499433 307.96041618 -229.28833008 300.11669922 C-231.13332255 298.29330175 -232.98455132 296.47619231 -234.84204102 294.66552734 C-237.54629293 292.02864796 -240.22990422 289.37218309 -242.91015625 286.7109375 C-243.73218033 285.91674408 -244.55420441 285.12255066 -245.40113831 284.30429077 C-255.22161898 274.4487785 -260.15350061 263.04011924 -260.38037109 249.18481445 C-260.34159858 228.9015026 -254.89258727 213.96148243 -240.43798828 199.43017578 C-239.96345215 198.95821777 -239.48891602 198.48625977 -239 198 C-238.13246094 197.13246094 -237.26492188 196.26492188 -236.37109375 195.37109375 C-219.27407711 179.08943409 -196.34887132 165.8775578 -172.2890625 165.83886719 C-171.54014236 165.83390228 -170.79122223 165.82893738 -170.01960754 165.82382202 C-167.55472878 165.80928275 -165.08991451 165.80240992 -162.625 165.796875 C-161.35210617 165.79263393 -161.35210617 165.79263393 -160.05349731 165.78830719 C-155.55698336 165.77334294 -151.06050122 165.76409778 -146.56396484 165.75976562 C-141.95582221 165.7543049 -137.34797861 165.73031995 -132.7399292 165.70179367 C-129.16562092 165.68301334 -125.59138222 165.67795344 -122.01702881 165.67642975 C-120.32043841 165.67343403 -118.6238483 165.66551201 -116.92730713 165.65224457 C-81.30714689 165.39371115 -51.72004715 182.67858469 -25 205 C-18.32385703 197.65624273 -18.71011763 190.06094815 -18.76953125 180.62109375 C-18.76998947 179.41800064 -18.77044769 178.21490753 -18.7709198 176.97535706 C-18.77393657 174.42602555 -18.78180561 171.87669579 -18.79418945 169.32739258 C-18.8121931 165.50269723 -18.8147005 161.67824852 -18.81445312 157.85351562 C-18.82078242 151.72023337 -18.87698154 145.58890652 -18.9619751 139.45623779 C-18.99849142 136.13712056 -18.99528871 132.81975287 -18.98974609 129.50048828 C-19.01548276 127.53284445 -19.04349655 125.56522855 -19.07421875 123.59765625 C-19.06244095 122.7204039 -19.05066315 121.84315155 -19.03852844 120.9393158 C-19.16765551 116.07023308 -19.89817755 113.5932814 -23.39379883 110.10131836 C-24.59548937 109.06710792 -25.79753573 108.03331073 -27 107 C-38.84997839 93.21452184 -47.89912747 75.35691921 -47.2734375 56.875 C-45.89083611 42.33793396 -35.50250007 32.30019367 -25 23 C-24.34 23 -23.68 23 -23 23 C-23 22.34 -23 21.68 -23 21 C-22.34 21 -21.68 21 -21 21 C-21 20.34 -21 19.68 -21 19 C-20.34 19 -19.68 19 -19 19 C-19 18.34 -19 17.68 -19 17 C-17.6015625 15.625 -17.6015625 15.625 -15.625 14 C-11.15947494 10.2214788 -7.08802584 6.12529059 -3.00390625 1.94140625 C-1 0 -1 0 0 0 Z M-67.6640625 277.53125 C-68.13435883 278.0005896 -68.60465515 278.4699292 -69.08920288 278.95349121 C-70.09081112 279.95441661 -71.09114828 280.95661526 -72.09033203 281.95996094 C-73.59431865 283.46921127 -75.10344028 284.97317172 -76.61328125 286.4765625 C-82.65873191 292.51742967 -82.65873191 292.51742967 -88.3671875 298.875 C-94.24880644 305.74481547 -100.89476322 311.94663234 -107.32080078 318.30029297 C-115.96695965 326.85110941 -115.96695965 326.85110941 -124.10351562 335.88085938 C-129.3635692 341.75846816 -135.13984381 347.18513056 -140.74804688 352.72753906 C-146.41830234 358.33720125 -152.04308682 363.90450635 -157.21972656 369.97949219 C-160.79175951 374.03354384 -164.62142836 377.84612073 -168.43310547 381.67333984 C-169.87287258 383.12285817 -171.30158327 384.58273302 -172.73046875 386.04296875 C-177.61848601 390.98440696 -182.46481333 395.34748015 -188.42236328 398.97216797 C-189.20329346 399.48094482 -189.20329346 399.48094482 -190 400 C-190 400.33 -190 400.66 -190 401 C-166.49470642 401.09359442 -142.98944093 401.16405316 -119.4839983 401.20724869 C-108.56910267 401.22784151 -97.65432308 401.25589926 -86.73950195 401.30175781 C-77.2220499 401.34172614 -67.70468192 401.36745663 -58.18714827 401.37635398 C-53.15137582 401.38155182 -48.11584381 401.39369991 -43.0801487 401.42292023 C-38.33183122 401.45024748 -33.58385123 401.45841029 -28.83546257 401.45243073 C-27.10095505 401.45352327 -25.36643522 401.4613734 -23.63199615 401.4768219 C-10.77335539 401.58565006 1.54946129 401.07319525 11.51171875 391.87890625 C15.76141919 386.51379887 15.69003898 380.53811936 15 374 C9.93921968 353.58435213 -5.77780922 336.66619111 -19 321 C-19.80171631 320.04746338 -19.80171631 320.04746338 -20.61962891 319.07568359 C-26.72748617 311.83326357 -32.98334716 304.75017384 -39.41796875 297.796875 C-41.80023515 295.21638673 -44.15569935 292.61495703 -46.5 290 C-49.99105625 286.11683236 -53.48725899 282.2385595 -57 278.375 C-57.48146484 277.84132813 -57.96292969 277.30765625 -58.45898438 276.7578125 C-59.61864197 275.48603794 -60.80665854 274.24022273 -62 273 C-64.13452838 273 -66.31299951 276.18193483 -67.6640625 277.53125 Z " fill="#E23445" transform="translate(1137,350)"/>
<path d="M0 0 C4.28656134 -0.14925086 8.57171473 -0.2576289 12.86010742 -0.32958984 C14.31610483 -0.35961041 15.77192369 -0.40044228 17.22729492 -0.45263672 C30.87432883 -0.92951149 30.87432883 -0.92951149 35.296875 2.6640625 C51.89248652 20.97553257 50.28445005 55.02997219 50.30496025 77.91830254 C50.30870334 81.28207742 50.32563808 84.64557755 50.34571838 88.0092926 C50.40039456 97.55733077 50.43171851 107.10540609 50.45629883 116.65356445 C50.47234322 122.53822425 50.50272202 128.42268318 50.54106331 134.30723763 C50.55255191 136.51993716 50.55864221 138.73267279 50.55874443 140.94540215 C50.56150322 184.74317381 62.55737378 222.55737378 94 254 C97.53166209 257.19430929 101.19935631 260.13275727 105 263 C105.93972656 263.71671875 106.87945313 264.4334375 107.84765625 265.171875 C136.0944874 285.72827857 167.47144781 294.13913845 202.00927734 294.16113281 C203.71539922 294.16576922 205.42152008 294.17079497 207.12763977 294.17617798 C211.73721009 294.18922054 216.3467659 294.19573034 220.95635176 294.20018864 C223.84202357 294.20313121 226.72769151 294.20723807 229.61336136 294.21169281 C238.65929499 294.22534324 247.70521967 294.23502316 256.75116289 294.2388947 C267.162313 294.24337639 277.57333189 294.26093981 287.98444211 294.2898953 C296.05525552 294.31155671 304.12603211 294.32160128 312.19687426 294.32293582 C317.00716952 294.3239802 321.81734101 294.32981007 326.62760544 294.34775543 C331.1535987 294.36431462 335.67937613 294.36635381 340.20538902 294.35761642 C341.85807183 294.35685037 343.51076665 294.36113127 345.16341972 294.37107468 C358.91043771 294.44887975 370.50031366 293.13392449 382 285 C382.63679688 284.55914063 383.27359375 284.11828125 383.9296875 283.6640625 C392.5097674 277.0669344 398.67726355 265.50364854 401 255 C401.79604529 241.83262795 401.35935718 230.56522617 392.6953125 219.8984375 C386.05541939 212.46298116 378.82482123 205.3077899 370.32080078 200.05322266 C363.93386723 195.62866512 358.32377095 190.50612082 356.45280457 182.72398376 C354.2403837 168.91462016 355.24289142 154.56488286 355.76403809 140.652771 C355.9498826 135.16299755 356.03073765 129.67171544 356.12109375 124.1796875 C356.31278656 113.44917052 356.61897808 102.72534949 357 92 C360.51084156 93.65300735 362.75749433 95.53739718 365.484375 98.32421875 C366.33773438 99.18853516 367.19109375 100.05285156 368.0703125 100.94335938 C368.95460938 101.84892578 369.83890625 102.75449219 370.75 103.6875 C376.65135141 109.70705355 382.60024765 115.51385251 389 121 C406.96166036 137.34802077 416.47619548 156.71625084 418 181 C418.12417944 184.85001034 418.14075589 188.69508034 418.1328125 192.546875 C418.13424759 194.12918915 418.13424759 194.12918915 418.13571167 195.74346924 C418.13638696 197.9585374 418.13457855 200.17360761 418.13037109 202.38867188 C418.1250353 205.72791126 418.1303274 209.06701483 418.13671875 212.40625 C418.14960387 243.88050569 418.14960387 243.88050569 415.25 256.75 C415.0737207 257.54801025 414.89744141 258.34602051 414.71582031 259.16821289 C406.85672999 293.06996942 370.24013391 327.85365096 343 348 C341.989375 348.75410156 340.97875 349.50820312 339.9375 350.28515625 C328.02281865 358.96680788 315.55251311 365.23979324 301 368 C300.13550232 368.1674472 299.27100464 368.33489441 298.38031006 368.50741577 C286.57686837 370.48754015 274.79509249 370.30913069 262.859375 370.30078125 C260.52353846 370.30467773 258.18770263 370.30901432 255.85186768 370.31376648 C250.97365007 370.3211932 246.09550487 370.32096357 241.21728516 370.31567383 C235.01347294 370.3098883 228.80996016 370.3268058 222.60619736 370.3500185 C217.78615633 370.36486161 212.96618563 370.36561318 208.14612579 370.36250877 C205.86114154 370.36301682 203.5761528 370.36815572 201.2911911 370.37832069 C187.86677861 370.43071721 175.15370066 369.76558652 162 367 C161.05673355 366.80212387 160.1134671 366.60424774 159.14161682 366.40037537 C157.11295092 365.95287959 155.12322748 365.44219921 153.125 364.875 C152.40143311 364.67036133 151.67786621 364.46572266 150.93237305 364.25488281 C127.7644598 357.32255662 106.85045807 344.30987276 89.17578125 327.98828125 C87.42998626 326.39293179 85.66711898 324.90064268 83.8125 323.4375 C80.13290318 320.24851609 77.10497783 316.74322327 74 313 C73.55849609 312.47615723 73.11699219 311.95231445 72.66210938 311.41259766 C54.42730307 289.70536672 41.60615949 264.31385059 34.6875 236.8125 C34.44499512 235.8831665 34.20249023 234.95383301 33.95263672 233.99633789 C29.06506552 213.38045894 29.71271828 191.77450004 29.72560501 170.72227669 C29.72849407 165.73825137 29.71388662 160.75436139 29.69662476 155.77037048 C29.65010719 141.61768538 29.62565182 127.46501435 29.61914062 113.31225586 C29.61537243 105.45210852 29.59722017 97.59211972 29.56404626 89.73204035 C29.54404409 84.79471421 29.54135381 79.85780265 29.55232644 74.92045319 C29.55496165 71.8363354 29.54079764 68.7524522 29.52224541 65.668396 C29.51699413 64.25766805 29.51829631 62.84689495 29.52728081 61.43618584 C29.65071255 40.32733654 23.18376421 22.83117525 8.7109375 7.48828125 C5.93316859 4.93865763 3.15126783 3.0469379 0 1 C0 0.67 0 0.34 0 0 Z " fill="#E23445" transform="translate(751,880)"/>
<path d="M0 0 C8.43702652 6.17298334 8.43702652 6.17298334 12 9.83984375 C12.66 10.51080078 13.32 11.18175781 14 11.87304688 C14.66 12.55431641 15.32 13.23558594 16 13.9375 C19.93899856 17.98035887 23.86882654 21.94500262 28.15625 25.62109375 C31.57806876 28.570491 34.60904802 31.65760607 37.5 35.125 C38.1964563 35.9595874 38.1964563 35.9595874 38.90698242 36.81103516 C53.54221019 54.73635289 60.49912954 74.84924735 60.38818359 97.91210938 C60.39226086 99.35777174 60.39760915 100.80343099 60.40411377 102.24908447 C60.41766595 106.13810971 60.41253675 110.02689328 60.40297651 113.91592216 C60.39530483 118.0193528 60.4024472 122.12276471 60.40713501 126.22619629 C60.41257586 133.12218884 60.40545021 140.01808468 60.39111328 146.9140625 C60.37484193 154.83073024 60.38004177 162.74716545 60.3965925 170.66382742 C60.41031772 177.5085424 60.41207223 184.35318836 60.40427649 191.19791269 C60.39965325 195.26452328 60.39882323 199.33102561 60.40888596 203.39762878 C60.51613256 253.69646581 49.61281087 300.36263351 13.1875 337.1875 C6.57124881 343.72324171 -0.47203971 349.54857492 -8 355 C-8.57266602 355.41701172 -9.14533203 355.83402344 -9.73535156 356.26367188 C-29.93576898 370.78803257 -52.59340913 380.87052767 -76.5625 387.3125 C-77.41054199 387.54300049 -78.25858398 387.77350098 -79.13232422 388.01098633 C-82.07533603 388.75729115 -85.02498958 389.39296662 -88 390 C-89.26585937 390.26417725 -90.53171875 390.52835449 -91.8359375 390.80053711 C-107.97505909 393.83315897 -124.41808431 393.77075247 -140.78320312 393.88549805 C-145.04089654 393.91893784 -149.29399141 394.02265087 -153.55004692 394.14101315 C-156.87905609 394.21998696 -160.20697549 394.24460899 -163.53683853 394.25534248 C-165.10534751 394.26976428 -166.67382775 394.30409785 -168.24139023 394.36045647 C-177.61132471 394.67709384 -183.56149873 393.61391619 -190.71142578 387.24438477 C-192.34617991 385.70280944 -193.93681102 384.13334523 -195.50366592 382.52290535 C-197.80534991 380.18034902 -200.24712426 378.00964046 -202.6875 375.8125 C-203.56921875 375.00296875 -204.4509375 374.1934375 -205.359375 373.359375 C-207.99128804 371.00778406 -210.68939509 368.77668738 -213.4375 366.5625 C-217.9739673 362.90364231 -222.258661 359.05131037 -226.52148438 355.08398438 C-229.73281228 352.1129881 -233.02618789 349.30046168 -236.4375 346.5625 C-241.84275987 342.21173447 -246.89861793 337.54663973 -251.96484375 332.8125 C-255.10280578 329.8854357 -258.330954 327.07343801 -261.609375 324.3046875 C-263 323 -263 323 -264 321 C-263.25991542 320.99761165 -262.51983084 320.99522329 -261.75731945 320.99276257 C-243.66651131 320.93336978 -225.57583678 320.85766708 -207.48517132 320.76428509 C-198.73630168 320.719509 -189.9874711 320.68005357 -181.23852539 320.65356445 C-173.60411707 320.63043583 -165.96983427 320.59687533 -158.33552581 320.55129844 C-154.30122286 320.52756439 -150.26704267 320.50870701 -146.23267174 320.50238609 C-116.49941609 320.55542099 -116.49941609 320.55542099 -87.625 314 C-86.7683374 313.70585205 -85.9116748 313.4117041 -85.02905273 313.10864258 C-69.40047141 307.48929744 -55.06033858 299.19711051 -42 289 C-41.09765625 288.30777344 -40.1953125 287.61554688 -39.265625 286.90234375 C-21.02593985 272.46708997 -4.29275769 255.33378406 10 237 C10.77214844 236.04609375 11.54429687 235.0921875 12.33984375 234.109375 C31.19151778 210.40332045 47.06571975 183.23827308 45 152 C42.07263936 130.88827198 25.91070092 117.68729006 11.50634766 103.54223633 C10.55961182 102.6086731 10.55961182 102.6086731 9.59375 101.65625 C9.04396484 101.11806641 8.49417969 100.57988281 7.92773438 100.02539062 C7.29158203 99.35701172 6.65542969 98.68863281 6 98 C5.51265318 97.53554946 5.02530636 97.07109892 4.52319145 96.59257412 C0.67763661 92.6358245 -0.68783821 89.87026203 -0.746521 84.3540802 C-0.72494934 83.52832993 -0.70337769 82.70257965 -0.68115234 81.85180664 C-0.6820285 80.96320953 -0.68290466 80.07461243 -0.68380737 79.15908813 C-0.67964983 76.24186187 -0.63308585 73.32697734 -0.5859375 70.41015625 C-0.57473881 68.37993119 -0.56620181 66.34968986 -0.56021118 64.31944275 C-0.53736593 58.99090349 -0.47847935 53.6633546 -0.4119873 48.33520508 C-0.3504721 42.89222611 -0.32317642 37.4490862 -0.29296875 32.00585938 C-0.22873231 21.33680584 -0.12640465 10.66848546 0 0 Z " fill="#E23445" transform="translate(1351,932)"/>
<path d="M0 0 C-3.68075595 3.72855797 -7.45682222 7.32813976 -11.3125 10.875 C-11.88935547 11.40673828 -12.46621094 11.93847656 -13.06054688 12.48632812 C-16.00835284 15.19592755 -18.97254483 17.87921791 -22 20.5 C-23.33420296 21.66567206 -24.66741876 22.83247436 -26 24 C-26.98613281 24.85722656 -27.97226563 25.71445312 -28.98828125 26.59765625 C-46.98552795 42.51355222 -58.69049159 60.80735439 -62 85 C-62.14379343 88.18463834 -62.14186626 91.36566219 -62.13803101 94.55314636 C-62.14085229 95.50858552 -62.14367357 96.46402467 -62.14658034 97.44841653 C-62.15490647 100.646853 -62.15626293 103.84525476 -62.15771484 107.04370117 C-62.16238479 109.33885292 -62.16752865 111.63400374 -62.17311096 113.92915344 C-62.18438508 118.87272746 -62.19282284 123.81629548 -62.19923019 128.75987816 C-62.20992944 136.59135034 -62.23018201 144.42277961 -62.25234985 152.25422668 C-62.25982943 154.9386128 -62.26724331 157.62299909 -62.27463722 160.30738544 C-62.27741307 161.31371949 -62.27741307 161.31371949 -62.280245 162.34038353 C-62.30116155 169.97325615 -62.3199913 177.60613342 -62.33789062 185.23901367 C-62.33952881 185.93642185 -62.34116699 186.63383003 -62.34285481 187.35237179 C-62.36907102 198.62323636 -62.38775286 209.89410417 -62.40448253 221.16498622 C-62.42197693 232.76488399 -62.45108933 244.36471549 -62.4893719 255.96456319 C-62.51035404 262.46582112 -62.52588658 268.96698914 -62.52817917 275.4682827 C-62.53034231 281.59559434 -62.54637998 287.72271911 -62.57256889 293.84997368 C-62.57970142 296.08505469 -62.58189266 298.32015849 -62.57846642 300.55524826 C-62.52590883 341.39934618 -74.15238651 372.04722482 -103.0625 401.1875 C-106.85749245 404.97008278 -110.72929553 408.61910768 -114.80859375 412.09375 C-117.76527012 414.66568952 -120.62860996 417.33359281 -123.5 420 C-127.58271576 423.78662326 -131.69770999 427.51768158 -135.91015625 431.16015625 C-138.64370638 433.56670226 -141.32110702 436.03306703 -144 438.5 C-147.95316134 442.13921399 -151.93945732 445.73086301 -156 449.25 C-159.20613495 452.05536808 -162.35417962 454.92494346 -165.5078125 457.7890625 C-166.74144531 458.88347656 -166.74144531 458.88347656 -168 460 C-168.8559375 460.90878906 -169.711875 461.81757812 -170.59375 462.75390625 C-174.89954763 466.3179893 -180.07329111 465.53482973 -185.375 465.3125 C-186.39722656 465.28994141 -187.41945313 465.26738281 -188.47265625 465.24414062 C-190.98329581 465.18548082 -193.49087379 465.10345928 -196 465 C-192.62067548 460.9364559 -189.23541662 457.11558301 -185.25 453.625 C-183.95835938 452.48417969 -183.95835938 452.48417969 -182.640625 451.3203125 C-181.76921875 450.55460937 -180.8978125 449.78890625 -180 449 C-178.33127341 447.50229197 -176.66458281 446.00231216 -175 444.5 C-172.52497766 442.27170886 -170.04928246 440.0442116 -167.5703125 437.8203125 C-165.92454794 436.34280502 -164.28268201 434.86094463 -162.64453125 433.375 C-160.76212394 431.68444809 -158.86827792 430.02248852 -156.94921875 428.375 C-144.6926978 417.7266109 -137.51578114 405.17137591 -135 389 C-134.85019409 385.77985058 -134.85387831 382.56251873 -134.85523987 379.33932495 C-134.85171302 378.36023891 -134.84818618 377.38115286 -134.84455246 376.37239754 C-134.83386894 373.08794124 -134.83018493 369.80351394 -134.82641602 366.51904297 C-134.82011003 364.16492592 -134.81334418 361.81081007 -134.80615234 359.45669556 C-134.79147913 354.38269168 -134.77975522 349.30869243 -134.77020454 344.23467636 C-134.75604711 336.87783882 -134.73510237 329.52103253 -134.71177601 322.16421916 C-134.67385922 310.20047058 -134.63890355 298.2367158 -134.60717773 286.27294922 C-134.60527724 285.55703185 -134.60337675 284.84111448 -134.60141867 284.10350265 C-134.57465835 273.97194993 -134.55076623 263.84039247 -134.52803367 253.70883001 C-134.52643637 252.99715732 -134.52483906 252.28548463 -134.52319336 251.55224609 C-134.52159989 250.84144944 -134.52000643 250.13065279 -134.51836468 249.39831685 C-134.49148466 237.4956214 -134.45703452 225.59296172 -134.41653961 213.69030488 C-134.38973719 205.71655668 -134.37191531 197.74283589 -134.36050236 189.76904845 C-134.35130812 184.78158062 -134.33391391 179.79416517 -134.31432343 174.80672836 C-134.30691538 172.51198154 -134.30277099 170.2172212 -134.30232811 167.92246246 C-134.29051893 134.03737804 -134.29051893 134.03737804 -129.8125 118.3125 C-129.59819336 117.5376123 -129.38388672 116.76272461 -129.16308594 115.96435547 C-122.35334267 92.39031495 -109.07731836 77.27507038 -90.90234375 61.421875 C-87.41912073 58.38238818 -84.00821238 55.27499705 -80.625 52.125 C-75.96166777 47.8013584 -71.26303824 43.52181547 -66.52734375 39.27734375 C-63.66917758 36.7019019 -60.83293383 34.10310304 -58 31.5 C-52.69880367 26.6305219 -47.3580727 21.80675976 -42 17 C-40.33307353 15.50028872 -38.66640851 14.00028679 -37 12.5 C-36.15953125 11.77039063 -35.3190625 11.04078125 -34.453125 10.2890625 C-31.94327447 8.05831928 -31.94327447 8.05831928 -29.921875 5.3984375 C-21.88555118 -3.93873011 -11.17148047 -1.40852699 0 0 Z " fill="#E23445" transform="translate(1361,351)"/>
<path d="M0 0 C2.33370197 1.1516798 3.81192449 2.58345366 5.62136841 4.45527649 C6.33937622 5.18746399 7.05738403 5.91965149 7.79714966 6.67402649 C8.5383606 7.44488586 9.27957153 8.21574524 10.04324341 9.00996399 C14.83944657 13.95099034 19.65830472 18.73352564 24.8821106 23.22285461 C37.82821542 34.48206279 51.02850654 47.33084518 52.29324341 65.38496399 C51.57907019 82.3168207 31.39206095 98.84031425 19.7829895 109.65400696 C17.67060009 111.59137529 15.5454271 113.51388423 13.41189575 115.42793274 C10.58182964 117.97541909 7.78410553 120.55817841 4.98074341 123.13496399 C3.25219692 124.71897604 1.52271016 126.30195658 -0.20675659 127.88496399 C-1.19675659 127.55496399 -2.18675659 127.22496399 -3.20675659 126.88496399 C-4.27706909 124.21699524 -4.27706909 124.21699524 -5.33175659 120.69746399 C-9.47927531 108.03120308 -17.61684039 97.90191465 -26.20675659 87.88496399 C-27.0987652 86.80928694 -27.98932818 85.73240986 -28.87863159 84.65449524 C-35.23179242 77.02329331 -41.98405056 69.93872445 -49.12692261 63.03852844 C-49.78748657 62.39488342 -50.44805054 61.7512384 -51.12863159 61.08808899 C-51.72256714 60.51735657 -52.31650269 59.94662415 -52.92843628 59.3585968 C-54.20675659 57.88496399 -54.20675659 57.88496399 -54.20675659 55.88496399 C-54.86675659 55.88496399 -55.52675659 55.88496399 -56.20675659 55.88496399 C-54.61869641 52.04413211 -52.17282778 49.57868399 -49.26974487 46.64155579 C-48.76869232 46.13217972 -48.26763977 45.62280365 -47.75140381 45.09799194 C-46.09871134 43.42126364 -44.43851177 41.75223829 -42.77706909 40.08418274 C-41.62358048 38.92172735 -40.47016971 37.75919472 -39.3168335 36.59658813 C-36.9012062 34.1644889 -34.48123527 31.73680227 -32.05880737 29.31147766 C-28.95082107 26.19809024 -25.85933591 23.0688456 -22.77153206 19.93545818 C-20.39680319 17.53104921 -18.01096155 15.13791035 -15.62185287 12.74779701 C-14.47665305 11.59838172 -13.335589 10.44483073 -12.19873428 9.28716087 C-10.61153791 7.67322092 -9.00943037 6.07571608 -7.40255737 4.48139954 C-6.49369781 3.56746933 -5.58483826 2.65353912 -4.6484375 1.71191406 C-2.20675659 -0.11503601 -2.20675659 -0.11503601 0 0 Z " fill="#E23445" transform="translate(1021.2067565917969,980.1150360107422)"/>
<path d="M0 0 C4.02654194 1.8472003 6.71593076 4.52506629 9.75 7.6875 C12.98796685 11.04110852 16.260753 14.27064748 19.79296875 17.31640625 C24.56604403 21.44460981 29.07448591 25.81571314 33.5625 30.25 C34.77969727 31.42369141 34.77969727 31.42369141 36.02148438 32.62109375 C45.25209899 41.75485768 52.79202969 52.01677358 53.625 65.25 C53.22212994 78.69966211 42.91219452 87.98875664 34 97 C33.21737793 97.79631836 32.43475586 98.59263672 31.62841797 99.41308594 C14.60162343 116.70840108 14.60162343 116.70840108 6 124 C5.05125 124.804375 4.1025 125.60875 3.125 126.4375 C1 128 1 128 -1 128 C-1.27972656 127.20078125 -1.55945313 126.4015625 -1.84765625 125.578125 C-10.01612931 103.20018595 -26.09221554 84.17028587 -43.234375 67.890625 C-45 66 -45 66 -45 64 C-45.99 63.67 -46.98 63.34 -48 63 C-49.60546875 61.37109375 -49.60546875 61.37109375 -51.1875 59.4375 C-51.98220703 58.47650391 -51.98220703 58.47650391 -52.79296875 57.49609375 C-53.19128906 57.00238281 -53.58960938 56.50867187 -54 56 C-52.41219641 52.13533667 -49.94066771 49.69940845 -46.99951172 46.77246094 C-46.492034 46.26469116 -45.98455627 45.75692139 -45.46170044 45.23376465 C-43.78906131 43.56251491 -42.10945783 41.89845444 -40.4296875 40.234375 C-39.26625722 39.07467623 -38.10326874 37.91453408 -36.94070435 36.75396729 C-33.884018 33.70490648 -30.82137256 30.66190037 -27.75744629 27.62011719 C-24.63024835 24.51340087 -21.50872493 21.40099455 -18.38671875 18.2890625 C-12.2633512 12.18712583 -6.1336764 6.09157402 0 0 Z " fill="#E23445" transform="translate(907,980)"/>
</svg>
